<svg xmlns="http://www.w3.org/2000/svg" style="display:none">
  <symbol id="i-arrow-down" viewBox="0 0 24 24" fill="none" stroke="currentColor" stroke-width="1.75" stroke-linecap="round" stroke-linejoin="round"><line x1="12" y1="4" x2="12" y2="20"></line><polyline points="6 14 12 20 18 14"></polyline></symbol>
  <symbol id="i-arrow-up" viewBox="0 0 24 24" fill="none" stroke="currentColor" stroke-width="1.75" stroke-linecap="round" stroke-linejoin="round"><line x1="12" y1="4" x2="12" y2="20"></line><polyline points="6 10 12 4 18 10"></polyline></symbol>
  <symbol id="i-plus" viewBox="0 0 24 24" fill="none" stroke="currentColor" stroke-width="1.75" stroke-linecap="round" stroke-linejoin="round"><line x1="12" y1="5" x2="12" y2="19"></line><line x1="5" y1="12" x2="19" y2="12"></line></symbol>
  <symbol id="i-copy" viewBox="0 0 24 24" fill="none" stroke="currentColor" stroke-width="1.75" stroke-linecap="round" stroke-linejoin="round"><rect x="9" y="9" width="11" height="11" rx="2"></rect><path d="M5 15V6a2 2 0 0 1 2-2h9"></path></symbol>
  <symbol id="i-x" viewBox="0 0 24 24" fill="none" stroke="currentColor" stroke-width="1.75" stroke-linecap="round" stroke-linejoin="round"><line x1="6" y1="6" x2="18" y2="18"></line><line x1="18" y1="6" x2="6" y2="18"></line></symbol>
  <symbol id="i-trash" viewBox="0 0 24 24" fill="none" stroke="currentColor" stroke-width="1.75" stroke-linecap="round" stroke-linejoin="round"><polyline points="3 6 21 6"></polyline><path d="M19 6l-1 14a2 2 0 0 1-2 2H8a2 2 0 0 1-2-2L5 6"></path><path d="M10 11v6"></path><path d="M14 11v6"></path><path d="M9 6V4a2 2 0 0 1 2-2h2a2 2 0 0 1 2 2v2"></path></symbol>
  <symbol id="i-undo" viewBox="0 0 24 24" fill="none" stroke="currentColor" stroke-width="1.75" stroke-linecap="round" stroke-linejoin="round"><polyline points="9 14 4 9 9 4"></polyline><path d="M4 9h11a5 5 0 0 1 5 5v0a5 5 0 0 1-5 5h-6"></path></symbol>
  <symbol id="i-redo" viewBox="0 0 24 24" fill="none" stroke="currentColor" stroke-width="1.75" stroke-linecap="round" stroke-linejoin="round"><polyline points="15 14 20 9 15 4"></polyline><path d="M20 9H9a5 5 0 0 0-5 5v0a5 5 0 0 0 5 5h6"></path></symbol>
  <symbol id="i-play" viewBox="0 0 24 24" fill="none" stroke="currentColor" stroke-width="1.75" stroke-linecap="round" stroke-linejoin="round"><polygon points="6 4 20 12 6 20 6 4"></polygon></symbol>
  <symbol id="i-pause" viewBox="0 0 24 24" fill="none" stroke="currentColor" stroke-width="1.75" stroke-linecap="round" stroke-linejoin="round"><rect x="6" y="5" width="4" height="14" rx="0.5"></rect><rect x="14" y="5" width="4" height="14" rx="0.5"></rect></symbol>
  <symbol id="i-square" viewBox="0 0 24 24" fill="none" stroke="currentColor" stroke-width="1.75" stroke-linecap="round" stroke-linejoin="round"><rect x="5" y="5" width="14" height="14" rx="0.5"></rect></symbol>
  <symbol id="i-skip-back" viewBox="0 0 24 24" fill="none" stroke="currentColor" stroke-width="1.75" stroke-linecap="round" stroke-linejoin="round"><polygon points="19 5 8 12 19 19 19 5"></polygon><line x1="5" y1="5" x2="5" y2="19"></line></symbol>
  <symbol id="i-skip-forward" viewBox="0 0 24 24" fill="none" stroke="currentColor" stroke-width="1.75" stroke-linecap="round" stroke-linejoin="round"><polygon points="5 5 16 12 5 19 5 5"></polygon><line x1="19" y1="5" x2="19" y2="19"></line></symbol>
  <symbol id="i-chevron-left" viewBox="0 0 24 24" fill="none" stroke="currentColor" stroke-width="1.75" stroke-linecap="round" stroke-linejoin="round"><polyline points="15 6 9 12 15 18"></polyline></symbol>
  <symbol id="i-chevron-right" viewBox="0 0 24 24" fill="none" stroke="currentColor" stroke-width="1.75" stroke-linecap="round" stroke-linejoin="round"><polyline points="9 6 15 12 9 18"></polyline></symbol>
  <symbol id="i-chevron-up" viewBox="0 0 24 24" fill="none" stroke="currentColor" stroke-width="1.75" stroke-linecap="round" stroke-linejoin="round"><polyline points="6 15 12 9 18 15"></polyline></symbol>
  <symbol id="i-chevron-down" viewBox="0 0 24 24" fill="none" stroke="currentColor" stroke-width="1.75" stroke-linecap="round" stroke-linejoin="round"><polyline points="6 9 12 15 18 9"></polyline></symbol>
  <symbol id="i-maximize" viewBox="0 0 24 24" fill="none" stroke="currentColor" stroke-width="1.75" stroke-linecap="round" stroke-linejoin="round"><polyline points="15 4 20 4 20 9"></polyline><polyline points="9 20 4 20 4 15"></polyline><line x1="20" y1="4" x2="14" y2="10"></line><line x1="4" y1="20" x2="10" y2="14"></line></symbol>
  <symbol id="i-minimize" viewBox="0 0 24 24" fill="none" stroke="currentColor" stroke-width="1.75" stroke-linecap="round" stroke-linejoin="round"><polyline points="4 14 10 14 10 20"></polyline><polyline points="20 10 14 10 14 4"></polyline><line x1="10" y1="14" x2="4" y2="20"></line><line x1="14" y1="10" x2="20" y2="4"></line></symbol>
  <symbol id="i-search" viewBox="0 0 24 24" fill="none" stroke="currentColor" stroke-width="1.75" stroke-linecap="round" stroke-linejoin="round"><circle cx="11" cy="11" r="6.5"></circle><line x1="20" y1="20" x2="16" y2="16"></line></symbol>
  <symbol id="i-help-circle" viewBox="0 0 24 24" fill="none" stroke="currentColor" stroke-width="1.75" stroke-linecap="round" stroke-linejoin="round"><circle cx="12" cy="12" r="9"></circle><path d="M9.5 9.5a2.5 2.5 0 0 1 5 0c0 1.5-2.5 2-2.5 4"></path><circle cx="12" cy="17" r="0.4" fill="currentColor"></circle></symbol>
  <symbol id="i-settings" viewBox="0 0 24 24" fill="none" stroke="currentColor" stroke-width="1.75" stroke-linecap="round" stroke-linejoin="round"><circle cx="12" cy="12" r="3"></circle><path d="M19.4 15a1.65 1.65 0 0 0 .33 1.82l.06.06a2 2 0 0 1-2.83 2.83l-.06-.06a1.65 1.65 0 0 0-1.82-.33 1.65 1.65 0 0 0-1 1.51V21a2 2 0 0 1-4 0v-.09A1.65 1.65 0 0 0 9 19.4a1.65 1.65 0 0 0-1.82.33l-.06.06a2 2 0 0 1-2.83-2.83l.06-.06a1.65 1.65 0 0 0 .33-1.82 1.65 1.65 0 0 0-1.51-1H3a2 2 0 0 1 0-4h.09A1.65 1.65 0 0 0 4.6 9a1.65 1.65 0 0 0-.33-1.82l-.06-.06a2 2 0 0 1 2.83-2.83l.06.06a1.65 1.65 0 0 0 1.82.33H9a1.65 1.65 0 0 0 1-1.51V3a2 2 0 0 1 4 0v.09a1.65 1.65 0 0 0 1 1.51 1.65 1.65 0 0 0 1.82-.33l.06-.06a2 2 0 0 1 2.83 2.83l-.06.06a1.65 1.65 0 0 0-.33 1.82V9a1.65 1.65 0 0 0 1.51 1H21a2 2 0 0 1 0 4h-.09a1.65 1.65 0 0 0-1.51 1z"></path></symbol>
  <symbol id="i-music" viewBox="0 0 24 24" fill="none" stroke="currentColor" stroke-width="1.75" stroke-linecap="round" stroke-linejoin="round"><path d="M9 18V5l12-2v13"></path><circle cx="6" cy="18" r="3"></circle><circle cx="18" cy="16" r="3"></circle></symbol>
  <symbol id="i-disc" viewBox="0 0 24 24" fill="none" stroke="currentColor" stroke-width="1.75" stroke-linecap="round" stroke-linejoin="round"><circle cx="12" cy="12" r="9"></circle><circle cx="12" cy="12" r="5"></circle><circle cx="12" cy="12" r="1" fill="currentColor" stroke="none"></circle></symbol>
  <symbol id="i-pan" viewBox="0 0 24 24" fill="none" stroke="currentColor" stroke-width="1.75" stroke-linecap="round" stroke-linejoin="round"><circle cx="12" cy="12" r="9"></circle><circle cx="12" cy="12" r="6"></circle><circle cx="12" cy="13.5" r="2.5"></circle><circle cx="7" cy="15" r="1.2"></circle><circle cx="17" cy="15" r="1.2"></circle><circle cx="9" cy="9.5" r="1.1"></circle><circle cx="15" cy="9.5" r="1.1"></circle></symbol>
  <symbol id="i-rhythm" viewBox="0 0 24 24" fill="none" stroke="currentColor" stroke-width="1.75" stroke-linecap="round" stroke-linejoin="round"><rect x="3" y="6" width="3" height="12" rx="0.5"></rect><rect x="8.5" y="9" width="3" height="9" rx="0.5"></rect><rect x="14" y="4" width="3" height="14" rx="0.5"></rect><rect x="19.5" y="11" width="3" height="7" rx="0.5"></rect></symbol>
  <symbol id="i-wave" viewBox="0 0 24 24" fill="none" stroke="currentColor" stroke-width="1.75" stroke-linecap="round" stroke-linejoin="round"><path d="M2 12 q3 -8 6 0 t6 0 t6 0 t6 0"></path></symbol>
  <symbol id="i-sun" viewBox="0 0 24 24" fill="none" stroke="currentColor" stroke-width="1.75" stroke-linecap="round" stroke-linejoin="round"><circle cx="12" cy="12" r="4"></circle><line x1="12" y1="2" x2="12" y2="4"></line><line x1="12" y1="20" x2="12" y2="22"></line><line x1="2" y1="12" x2="4" y2="12"></line><line x1="20" y1="12" x2="22" y2="12"></line><line x1="5" y1="5" x2="6.5" y2="6.5"></line><line x1="17.5" y1="17.5" x2="19" y2="19"></line><line x1="5" y1="19" x2="6.5" y2="17.5"></line><line x1="17.5" y1="6.5" x2="19" y2="5"></line></symbol>
  <symbol id="i-moon" viewBox="0 0 24 24" fill="none" stroke="currentColor" stroke-width="1.75" stroke-linecap="round" stroke-linejoin="round"><path d="M21 13.5A9 9 0 1 1 10.5 3a7 7 0 0 0 10.5 10.5z"></path></symbol>
  <symbol id="i-zap" viewBox="0 0 24 24" fill="none" stroke="currentColor" stroke-width="1.75" stroke-linecap="round" stroke-linejoin="round"><polygon points="13 2 4 14 11 14 10 22 19 10 13 10 13 2"></polygon></symbol>
  <symbol id="i-diamond" viewBox="0 0 24 24" fill="none" stroke="currentColor" stroke-width="1.75" stroke-linecap="round" stroke-linejoin="round"><polygon points="12 2 22 12 12 22 2 12 12 2"></polygon></symbol>
  <symbol id="i-circle-dashed" viewBox="0 0 24 24" fill="none" stroke="currentColor" stroke-width="1.75" stroke-linecap="round" stroke-linejoin="round"><circle cx="12" cy="12" r="9" stroke-dasharray="4 3"></circle></symbol>
  <symbol id="i-flame" viewBox="0 0 24 24" fill="none" stroke="currentColor" stroke-width="1.75" stroke-linecap="round" stroke-linejoin="round"><path d="M12 22c-4 0-7-3-7-7 0-3 2-5 3.5-7 1.5-2 1.5-4 1.5-5 2 0 3 1 4 3 1 2 2 3.5 3 5 1.5 2.5 2 4 2 6 0 4-3 5-7 5z"></path></symbol>
  <symbol id="i-check" viewBox="0 0 24 24" fill="none" stroke="currentColor" stroke-width="1.75" stroke-linecap="round" stroke-linejoin="round"><polyline points="4 12 10 18 20 6"></polyline></symbol>
  <symbol id="i-circle" viewBox="0 0 24 24" fill="none" stroke="currentColor" stroke-width="1.75" stroke-linecap="round" stroke-linejoin="round"><circle cx="12" cy="12" r="9"></circle></symbol>
  <symbol id="i-circle-filled" viewBox="0 0 24 24" fill="none" stroke="currentColor" stroke-width="1.75" stroke-linecap="round" stroke-linejoin="round"><circle cx="12" cy="12" r="6" fill="currentColor" stroke="none"></circle></symbol>
  <symbol id="i-volume" viewBox="0 0 24 24" fill="none" stroke="currentColor" stroke-width="1.75" stroke-linecap="round" stroke-linejoin="round"><polygon points="11 5 6 9 2 9 2 15 6 15 11 19 11 5"></polygon><path d="M16 8a5 5 0 0 1 0 8"></path><path d="M19.5 5.5a9 9 0 0 1 0 13"></path></symbol>
  <symbol id="i-mouse-pointer" viewBox="0 0 24 24" fill="none" stroke="currentColor" stroke-width="1.75" stroke-linecap="round" stroke-linejoin="round"><polygon points="3 3 11 21 14 13 21 11 3 3"></polygon></symbol>
  <symbol id="i-pen" viewBox="0 0 24 24" fill="none" stroke="currentColor" stroke-width="1.75" stroke-linecap="round" stroke-linejoin="round"><path d="M3 21l4-1 13-13a2.5 2.5 0 0 0-3.5-3.5L3.5 16.5 3 21z"></path></symbol>
  <symbol id="i-eye" viewBox="0 0 24 24" fill="none" stroke="currentColor" stroke-width="1.75" stroke-linecap="round" stroke-linejoin="round"><path d="M2 12s4-7 10-7 10 7 10 7-4 7-10 7S2 12 2 12z"></path><circle cx="12" cy="12" r="3"></circle></symbol>
  <symbol id="i-target" viewBox="0 0 24 24" fill="none" stroke="currentColor" stroke-width="1.75" stroke-linecap="round" stroke-linejoin="round"><circle cx="12" cy="12" r="9"></circle><circle cx="12" cy="12" r="5"></circle><circle cx="12" cy="12" r="1" fill="currentColor" stroke="none"></circle></symbol>
</svg>